<?xml version="1.0" standalone="no"?>
<!DOCTYPE svg PUBLIC "-//W3C//DTD SVG 20010904//EN"
 "http://www.w3.org/TR/2001/REC-SVG-20010904/DTD/svg10.dtd">
<svg version="1.0" xmlns="http://www.w3.org/2000/svg"
 width="912.000000pt" height="912.000000pt" viewBox="0 0 912.000000 912.000000"
 preserveAspectRatio="xMidYMid meet">

<g transform="translate(0.000000,912.000000) scale(0.100000,-0.100000)"
fill="#000000" stroke="none">
<path d="M4100 8494 c-147 -53 -226 -174 -218 -332 8 -169 113 -291 278 -322
29 -6 55 -11 56 -13 2 -1 12 -50 24 -107 61 -305 127 -419 539 -929 l114 -141
53 0 c50 0 54 2 54 24 0 14 -18 44 -43 72 -104 117 -349 416 -401 489 -73 101
-158 274 -190 388 -34 117 -52 220 -39 224 6 2 34 18 64 36 135 81 195 261
137 414 -27 74 -101 153 -171 184 -69 30 -193 36 -257 13z m218 -113 c166 -85
165 -341 -2 -420 -54 -25 -140 -28 -191 -7 -87 37 -153 151 -142 247 19 161
191 253 335 180z"/>
<path d="M2844 7981 c-104 -27 -197 -110 -234 -209 -40 -106 -17 -254 52 -329
12 -13 17 -27 12 -34 -8 -14 -154 -214 -346 -476 -68 -92 -159 -217 -203 -278
-43 -60 -89 -124 -102 -142 l-23 -32 -46 16 c-69 23 -194 14 -259 -19 -68 -35
-127 -102 -155 -174 -18 -49 -21 -74 -18 -144 5 -98 33 -164 95 -226 105 -105
298 -123 423 -39 l50 34 63 -57 c34 -32 153 -142 264 -245 139 -128 207 -185
217 -181 12 5 16 21 16 60 l0 53 -247 228 c-137 125 -248 230 -248 233 1 3 8
29 18 59 36 114 12 217 -77 336 -10 13 37 80 374 540 97 132 197 270 223 306
65 92 66 92 118 73 56 -21 162 -20 218 0 24 9 45 15 47 14 2 -3 237 -368 407
-630 l50 -78 53 0 c29 0 55 4 59 9 3 5 -49 92 -116 193 -135 203 -191 289
-299 456 l-73 113 21 22 c11 12 33 49 48 82 55 119 32 268 -55 368 -49 55
-142 97 -227 102 -38 2 -83 1 -100 -4z m171 -110 c115 -53 169 -190 120 -309
-22 -54 -92 -116 -150 -132 -138 -39 -281 61 -293 206 -6 69 16 129 65 179 70
72 174 95 258 56z m-1110 -1462 c106 -30 175 -120 175 -230 -1 -114 -59 -194
-165 -224 -89 -26 -174 0 -237 75 -84 97 -77 221 17 316 66 67 129 85 210 63z"/>
<path d="M3047 6509 c-94 -22 -180 -88 -225 -174 l-27 -50 -3 -2240 c-2 -2012
-1 -2244 14 -2287 33 -99 109 -176 201 -204 66 -20 4492 -22 4505 -2 12 20 9
64 -5 77 -10 8 -625 11 -2238 13 l-2224 3 -47 28 c-31 18 -57 44 -75 75 l-28
47 -3 2205 c-2 1643 0 2216 9 2247 15 54 68 116 122 142 l43 21 1996 0 c1802
0 1998 2 2012 16 21 21 20 57 -2 77 -17 16 -170 17 -2003 16 -1115 -1 -2000
-5 -2022 -10z"/>
<path d="M4445 5808 c-94 -95 -283 -288 -419 -428 l-248 -255 -171 177 c-95
97 -182 181 -194 187 -91 45 -207 -64 -162 -152 17 -33 71 -87 81 -81 5 3 7 1
6 -4 -4 -12 318 -346 364 -379 32 -21 45 -25 84 -20 42 4 54 13 125 83 43 42
75 82 72 87 -3 6 -2 7 4 4 5 -3 42 27 82 67 40 41 69 76 65 78 -5 3 -4 4 2 2
14 -3 86 70 79 79 -3 4 -2 5 2 2 8 -7 73 55 73 70 0 6 11 17 24 25 29 19 437
444 453 473 42 75 -14 157 -108 157 -42 0 -45 -3 -214 -172z m-1051 -553 c-7
-17 -30 -20 -39 -6 -3 5 5 12 17 14 13 2 24 5 25 6 1 0 0 -6 -3 -14z m46 -73
c0 -13 -12 -22 -22 -16 -10 6 -1 24 13 24 5 0 9 -4 9 -8z"/>
<path d="M6529 5296 c-2 -2 -92 -21 -199 -41 -245 -46 -230 -41 -230 -74 0
-49 20 -65 73 -57 38 6 45 10 40 24 -6 15 -5 15 10 3 14 -11 30 -11 104 3 104
19 103 19 103 6 0 -5 -141 -181 -312 -391 -172 -210 -424 -517 -559 -683 -150
-184 -252 -299 -260 -297 -104 29 -175 22 -235 -24 -18 -14 -36 -25 -41 -25
-4 0 -104 60 -222 133 l-215 132 0 76 c-1 66 -5 82 -31 125 -102 165 -357 146
-425 -31 -16 -43 -14 -149 5 -184 8 -17 15 -36 15 -43 0 -8 -42 -61 -92 -119
-51 -58 -188 -213 -304 -345 -432 -491 -504 -575 -504 -592 0 -27 21 -52 45
-52 26 0 134 118 787 863 48 55 85 103 82 108 -3 5 -2 8 3 7 5 -2 22 12 38 29
l30 33 45 -16 c65 -23 142 -13 197 25 24 17 49 31 56 31 7 0 74 -40 149 -88
76 -48 171 -108 213 -134 l75 -47 0 -66 c0 -78 15 -119 61 -164 47 -48 103
-71 172 -71 71 0 120 20 169 67 66 64 87 192 43 259 -8 13 -15 32 -15 42 0 17
96 141 310 402 441 539 601 735 715 878 44 56 85 101 91 101 6 1 14 -50 21
-134 11 -141 19 -165 58 -165 49 0 50 14 32 252 -9 123 -22 227 -28 234 -11
13 -60 20 -70 10z m-2119 -1084 c96 -48 106 -173 21 -245 -56 -46 -145 -32
-189 31 -44 61 -37 145 16 194 45 43 95 49 152 20z m868 -518 c84 -55 79 -189
-9 -236 -98 -52 -199 10 -199 124 0 109 116 172 208 112z"/>
<path d="M1389 5026 c-77 -31 -112 -58 -148 -113 -116 -175 -56 -416 124 -502
74 -35 181 -40 260 -11 33 12 67 22 76 23 8 1 92 -80 190 -183 447 -476 704
-746 717 -754 20 -12 29 2 36 56 l7 47 -148 158 c-81 87 -191 203 -243 258
-87 91 -375 397 -442 470 l-27 30 25 50 c13 28 27 73 30 101 l6 49 322 55
c176 29 353 58 393 64 80 11 86 17 77 78 -7 38 -8 40 -38 35 -66 -12 -683
-115 -721 -120 l-40 -6 -34 65 c-60 116 -161 174 -300 174 -46 0 -83 -8 -122
-24z m233 -103 c144 -78 169 -293 45 -387 -152 -116 -350 -38 -382 151 -15 93
50 210 138 248 55 24 142 19 199 -12z"/>
<path d="M6372 3568 c-7 -7 -12 -15 -12 -20 0 -4 -35 -88 -78 -185 -146 -332
-227 -542 -216 -561 13 -20 64 -34 112 -30 l36 3 64 155 c35 85 90 220 122
300 33 80 63 146 68 148 5 1 21 -30 37 -70 15 -40 56 -143 91 -228 101 -249
204 -513 204 -522 0 -4 -106 -8 -235 -8 -268 0 -248 8 -249 -94 l-1 -61 280
-3 281 -2 83 -216 c46 -119 89 -232 97 -250 14 -34 14 -34 83 -34 78 0 101 6
101 26 0 32 -517 1304 -649 1597 l-30 67 -89 0 c-55 0 -92 -4 -100 -12z"/>
<path d="M5872 2388 c-135 -323 -185 -455 -179 -473 6 -13 20 -15 89 -13 l81
3 42 105 c24 58 79 195 124 305 71 175 79 202 67 219 -15 23 -68 44 -112 45
l-31 1 -81 -192z"/>
</g>
</svg>
