<?xml version="1.0" standalone="no"?><!DOCTYPE svg PUBLIC "-//W3C//DTD SVG 1.1//EN" "http://www.w3.org/Graphics/SVG/1.1/DTD/svg11.dtd"><svg height="1024" node-id="1" sillyvg="true" template-height="1024" template-width="1024" version="1.1" viewBox="0 0 1024 1024" width="1024" xmlns="http://www.w3.org/2000/svg" xmlns:xlink="http://www.w3.org/1999/xlink"><defs node-id="26"><linearGradient gradientUnits="objectBoundingBox" id="linearGradient-1" node-id="5" spreadMethod="pad" x1="0.5" x2="0.5" y1="1" y2="0.000000000000000000000000000000006162976"><stop offset="0" stop-color="#ffa452"></stop><stop offset="1" stop-color="#ff5000"></stop></linearGradient><linearGradient gradientUnits="objectBoundingBox" id="linearGradient-2" node-id="8" spreadMethod="pad" x1="0.163392" x2="0.8629818" y1="0.43275914" y2="0.58864266"><stop offset="0" stop-color="#fe6900"></stop><stop offset="1" stop-color="#ffa451"></stop></linearGradient></defs><g node-id="39"><path d="M 0.00 1024.00 L 1024.00 1024.00 L 1024.00 0.00 L 0.00 0.00 Z" fill="#ffffff" fill-rule="evenodd" group-id="1" id="Fill-1" node-id="13" stroke="none" target-height="1024" target-width="1024" target-x="0" target-y="0"></path><g node-id="40"><path d="M 772.30 640.00 L 763.70 640.30 L 755.40 641.10 L 747.30 642.50 L 739.40 644.40 L 731.60 646.90 L 724.10 649.70 L 716.80 653.10 L 709.80 656.90 L 703.10 661.20 L 696.60 665.80 L 690.60 670.80 L 684.80 676.20 L 679.30 682.00 L 674.30 688.10 L 669.70 694.50 L 665.40 701.30 L 661.60 708.30 L 658.30 715.50 L 655.40 723.00 L 653.00 730.80 L 651.10 738.70 L 649.70 746.90 L 648.80 755.20 L 648.50 763.70 L 648.80 772.30 L 649.70 780.60 L 651.10 788.70 L 653.00 796.60 L 655.40 804.40 L 658.30 811.90 L 661.60 819.20 L 665.40 826.20 L 669.70 832.90 L 674.30 839.40 L 679.30 845.40 L 684.80 851.20 L 690.60 856.70 L 696.60 861.70 L 703.10 866.30 L 709.80 870.60 L 716.80 874.40 L 724.10 877.70 L 731.60 880.60 L 739.40 883.00 L 747.30 885.00 L 755.40 886.30 L 763.70 887.20 L 772.30 887.50 L 780.80 887.20 L 789.20 886.30 L 797.30 884.90 L 805.20 883.00 L 813.00 880.60 L 820.50 877.70 L 827.70 874.40 L 834.70 870.60 L 841.50 866.30 L 847.90 861.70 L 854.00 856.70 L 859.80 851.20 L 865.20 845.40 L 870.20 839.40 L 874.90 832.90 L 879.10 826.20 L 882.90 819.20 L 886.30 811.90 L 889.10 804.40 L 891.60 796.60 L 893.50 788.70 L 894.90 780.60 L 895.70 772.30 L 896.00 763.70 L 895.70 755.20 L 894.90 746.80 L 893.50 738.70 L 891.60 730.80 L 889.10 723.00 L 886.30 715.50 L 882.90 708.30 L 879.10 701.30 L 874.80 694.50 L 870.20 688.10 L 865.20 682.00 L 859.80 676.20 L 854.00 670.80 L 847.90 665.80 L 841.50 661.20 L 834.70 656.90 L 827.70 653.10 L 820.50 649.70 L 813.00 646.90 L 805.20 644.40 L 797.30 642.50 L 789.10 641.10 L 780.80 640.30 L 772.30 640.00 Z M 833.90 768.30 L 816.70 781.20 L 808.10 788.00 L 801.90 793.50 L 796.40 799.70 L 789.60 808.20 L 776.80 825.30 L 775.40 826.70 L 773.80 827.50 L 772.00 827.70 L 770.30 827.50 L 768.70 826.60 L 767.30 825.30 L 754.70 807.70 L 748.00 799.00 L 742.50 792.70 L 736.40 787.40 L 727.90 780.90 L 710.70 768.70 L 709.40 767.30 L 708.60 765.80 L 708.30 764.00 L 708.50 762.30 L 709.30 760.60 L 710.60 759.30 L 727.50 746.10 L 735.90 739.30 L 742.10 733.70 L 747.60 727.50 L 754.60 719.00 L 767.70 702.10 L 769.10 700.70 L 770.70 700.00 L 772.40 699.70 L 774.10 700.00 L 775.70 700.80 L 777.00 702.10 L 789.30 718.50 L 795.70 726.60 L 801.00 732.50 L 807.40 738.30 L 816.20 745.40 L 834.00 758.90 L 835.30 760.30 L 836.00 761.90 L 836.30 763.60 L 836.00 765.30 L 835.20 766.90 L 833.90 768.30 Z" fill="#ebeceb" fill-rule="nonzero" group-id="1,2" id="形状" node-id="15" stroke="none" target-height="247.5" target-width="247.5" target-x="648.5" target-y="640"></path><path d="M 281.60 145.10 L 276.60 145.30 L 267.20 146.80 L 262.70 148.10 L 256.90 150.40 L 251.40 153.20 L 246.30 156.60 L 241.60 160.50 L 237.30 164.80 L 233.40 169.50 L 230.00 174.60 L 227.20 180.10 L 224.90 185.90 L 222.70 195.10 L 221.90 204.80 L 222.70 214.50 L 224.90 223.70 L 227.20 229.50 L 230.00 235.00 L 233.40 240.10 L 237.30 244.80 L 241.60 249.10 L 246.30 253.00 L 251.40 256.40 L 256.90 259.20 L 262.70 261.50 L 267.20 262.80 L 276.60 264.30 L 281.60 264.50 L 291.30 263.70 L 300.50 261.50 L 306.30 259.20 L 311.80 256.40 L 316.90 253.00 L 321.60 249.10 L 325.90 244.80 L 329.80 240.10 L 333.20 235.00 L 336.00 229.50 L 338.30 223.70 L 339.60 219.20 L 341.10 209.80 L 341.30 204.80 L 340.50 195.10 L 338.30 185.90 L 336.00 180.10 L 333.20 174.60 L 329.80 169.50 L 325.90 164.80 L 321.60 160.50 L 316.90 156.60 L 311.80 153.20 L 306.30 150.40 L 300.50 148.10 L 296.00 146.80 L 286.60 145.30 L 281.60 145.10 Z M 311.30 207.00 L 300.20 215.50 L 295.90 219.20 L 292.20 223.50 L 283.80 234.50 L 282.70 235.40 L 281.50 235.70 L 280.20 235.40 L 279.20 234.50 L 270.90 223.10 L 267.20 218.80 L 263.00 215.20 L 251.90 207.20 L 251.00 206.20 L 250.70 204.90 L 251.00 203.70 L 251.80 202.60 L 262.80 194.00 L 267.00 190.30 L 270.80 186.00 L 279.40 175.00 L 280.40 174.20 L 281.70 173.90 L 282.90 174.20 L 283.90 175.00 L 291.90 185.60 L 295.50 189.70 L 299.90 193.60 L 311.40 202.50 L 312.20 203.50 L 312.50 204.70 L 312.20 206.00 L 311.30 207.00 Z" fill="#c4c6c7" fill-rule="nonzero" group-id="1,2" id="形状备份" node-id="16" stroke="none" target-height="119.399994" target-width="119.399994" target-x="221.9" target-y="145.1"></path></g><g node-id="41"><path d="M 720.00 682.70 L 344.50 682.70 L 344.50 400.30 L 344.90 390.90 L 345.80 381.80 L 347.30 372.90 L 349.40 364.20 L 352.00 355.70 L 355.20 347.40 L 358.90 339.50 L 363.10 331.80 L 367.70 324.40 L 372.80 317.30 L 378.30 310.70 L 384.30 304.30 L 390.60 298.40 L 397.30 292.80 L 404.40 287.70 L 411.80 283.10 L 419.50 278.90 L 427.40 275.20 L 435.70 272.10 L 444.20 269.40 L 452.90 267.30 L 461.80 265.80 L 470.90 264.90 L 480.30 264.50 L 584.20 264.50 L 593.60 264.90 L 602.70 265.80 L 611.60 267.30 L 620.30 269.40 L 628.80 272.10 L 637.10 275.20 L 645.00 278.90 L 652.70 283.10 L 660.10 287.70 L 667.20 292.80 L 673.90 298.40 L 680.20 304.30 L 686.20 310.70 L 691.70 317.30 L 696.80 324.40 L 701.40 331.80 L 705.60 339.50 L 709.30 347.40 L 712.50 355.70 L 715.10 364.20 L 717.20 372.90 L 718.70 381.80 L 719.70 390.90 L 720.00 400.30 L 720.00 682.70 Z" fill="url(#linearGradient-1)" fill-rule="evenodd" group-id="1,3" id="Fill-2" node-id="18" stroke="none" target-height="418.2" target-width="375.5" target-x="344.5" target-y="264.5"></path><path d="M 477.90 264.50 L 588.80 264.50 L 588.80 230.40 L 477.90 230.40 Z" fill="#fdcca2" fill-rule="evenodd" group-id="1,3" id="Fill-4" node-id="19" stroke="none" target-height="34.100006" target-width="110.899994" target-x="477.9" target-y="230.4"></path><path d="M 588.80 230.40 L 477.90 230.40 L 452.30 162.10 L 477.90 179.20 L 588.80 179.20 L 614.40 162.10 Z" fill="url(#linearGradient-2)" fill-rule="evenodd" group-id="1,3" id="Fill-6" node-id="20" stroke="none" target-height="68.29999" target-width="162.10004" target-x="452.3" target-y="162.1"></path><path d="M 834.90 591.20 L 821.90 586.90 L 817.10 585.50 L 812.30 584.70 L 807.40 584.30 L 802.50 584.50 L 797.60 585.10 L 792.80 586.20 L 788.10 587.70 L 783.50 589.80 L 649.70 658.30 L 644.90 660.50 L 640.00 662.30 L 634.90 663.70 L 629.80 664.80 L 624.60 665.40 L 619.30 665.60 L 460.80 665.60 L 458.50 665.30 L 456.50 664.40 L 454.80 663.10 L 453.40 661.40 L 452.60 659.40 L 452.30 657.10 L 452.60 654.80 L 453.40 652.80 L 454.80 651.00 L 456.50 649.70 L 458.50 648.80 L 460.80 648.50 L 558.70 648.50 L 562.90 648.30 L 567.00 647.60 L 571.10 646.50 L 575.00 645.00 L 578.70 643.10 L 582.20 640.70 L 608.20 621.20 L 610.50 619.00 L 612.00 616.70 L 613.00 614.20 L 613.50 611.60 L 613.40 609.00 L 612.80 606.40 L 611.70 604.00 L 610.20 601.90 L 608.30 600.00 L 606.00 598.60 L 603.30 597.70 L 600.20 597.30 L 444.70 597.30 L 439.00 597.60 L 433.50 598.30 L 428.10 599.50 L 422.80 601.20 L 417.70 603.40 L 412.70 606.00 L 408.10 609.00 L 403.70 612.40 L 399.50 616.20 L 350.90 665.60 L 298.70 665.60 L 298.70 810.70 L 435.20 810.70 L 676.20 719.30 L 680.40 717.40 L 688.30 712.80 L 837.40 608.50 L 838.90 607.20 L 840.90 604.20 L 841.40 602.50 L 841.50 599.10 L 840.40 595.80 L 839.40 594.30 L 836.70 592.00 L 834.90 591.20" fill="#ffcca2" fill-rule="evenodd" group-id="1,3" id="Fill-7" node-id="21" stroke="none" target-height="226.40002" target-width="542.8" target-x="298.7" target-y="584.3"></path><path d="M 128.00 887.50 L 298.70 887.50 L 298.70 631.50 L 128.00 631.50 Z" fill="#222222" fill-rule="evenodd" group-id="1,3" id="Fill-8" node-id="22" stroke="none" target-height="256" target-width="170.70001" target-x="128" target-y="631.5"></path><path d="M 234.70 840.50 L 260.30 840.50 L 260.30 814.90 L 234.70 814.90 Z" fill="#f7f7f7" fill-rule="evenodd" group-id="1,3" id="Fill-9" node-id="23" stroke="none" target-height="25.599976" target-width="25.59999" target-x="234.7" target-y="814.9"></path><path d="M 516.60 507.20 L 474.30 507.20 L 474.30 491.20 L 516.60 491.20 L 516.60 477.10 L 474.30 477.10 L 474.30 461.00 L 509.20 461.00 L 458.30 380.70 L 495.70 380.70 L 532.10 453.50 L 533.20 453.50 L 537.40 445.50 L 549.90 419.70 L 569.40 380.70 L 606.30 380.70 L 555.10 461.00 L 590.20 461.00 L 590.20 477.10 L 548.20 477.10 L 548.20 491.20 L 590.20 491.20 L 590.20 507.20 L 548.20 507.20 L 548.20 540.60 L 516.60 540.60 L 516.60 507.20 Z" fill="#ffffff" fill-rule="evenodd" group-id="1,3" id="Fill-10" node-id="24" stroke="none" target-height="159.89996" target-width="148" target-x="458.3" target-y="380.7"></path></g></g></svg>