<?xml version="1.0" standalone="no"?><!DOCTYPE svg PUBLIC "-//W3C//DTD SVG 1.1//EN" "http://www.w3.org/Graphics/SVG/1.1/DTD/svg11.dtd"><svg t="1751374579679" class="icon" viewBox="0 0 1024 1024" version="1.1" xmlns="http://www.w3.org/2000/svg" p-id="5452" xmlns:xlink="http://www.w3.org/1999/xlink" width="128" height="128"><path d="M142.848 334.848Q96 381.696 96 448v384q0 66.304 46.848 113.152T256 992h512q160 0 160-160V448q0-160-160-160H256q-66.304 0-113.152 46.848zM160 832V448q0-39.744 28.16-67.84Q216.192 352 256 352h512q96 0 96 96v384q0 96-96 96H256q-39.744 0-67.84-28.16-28.16-28.096-28.16-67.84z" fill="#424656" p-id="5453"></path><path d="M512 32Q288 32 288 256v64q0 3.2 0.64 6.272t1.792 5.952q1.216 2.944 2.944 5.568 1.792 2.56 3.968 4.864 2.24 2.176 4.864 3.968 2.624 1.728 5.568 2.944 2.88 1.216 5.952 1.792 3.136 0.64 6.272 0.64 3.2 0 6.272-0.64t5.952-1.792q2.944-1.216 5.568-2.944 2.56-1.792 4.864-3.968 2.176-2.24 3.968-4.864 1.728-2.624 2.944-5.568 1.216-2.88 1.792-5.952 0.64-3.136 0.64-6.272V256q0-160 160-160T672 256v64q0 3.2 0.64 6.272t1.792 5.952q1.216 2.944 2.944 5.568 1.792 2.56 3.968 4.864 2.24 2.176 4.864 3.968 2.624 1.728 5.568 2.944 2.88 1.216 5.952 1.792 3.136 0.64 6.272 0.64 3.2 0 6.272-0.64t5.952-1.792q2.944-1.216 5.568-2.944 2.56-1.792 4.864-3.968 2.176-2.24 3.968-4.864 1.728-2.624 2.944-5.568 1.216-2.88 1.792-5.952 0.64-3.136 0.64-6.272V256Q736 32 512 32zM512 736q3.2 0 6.272-0.64t5.952-1.792q2.944-1.216 5.568-2.944 2.56-1.792 4.864-3.968 2.176-2.24 3.968-4.864 1.728-2.624 2.944-5.568 1.216-2.88 1.792-5.952 0.64-3.136 0.64-6.272V576q0-3.2-0.64-6.272t-1.792-5.952q-1.216-2.944-2.944-5.568-1.792-2.56-3.968-4.864-2.24-2.176-4.864-3.968-2.624-1.728-5.568-2.944-2.88-1.216-5.952-1.792Q515.136 544 512 544q-3.2 0-6.272 0.64t-5.952 1.792q-2.944 1.216-5.568 2.944-2.56 1.792-4.864 3.968-2.176 2.24-3.968 4.864-1.728 2.624-2.944 5.568-1.216 2.88-1.792 5.952-0.64 3.136-0.64 6.272v128q0 3.2 0.64 6.272t1.792 5.952q1.216 2.944 2.944 5.568 1.792 2.56 3.968 4.864 2.24 2.176 4.864 3.968 2.624 1.728 5.568 2.944 2.88 1.216 5.952 1.792 3.136 0.64 6.272 0.64z" fill="#424656" p-id="5454"></path></svg>