<?xml version="1.0" standalone="no"?><!DOCTYPE svg PUBLIC "-//W3C//DTD SVG 1.1//EN" "http://www.w3.org/Graphics/SVG/1.1/DTD/svg11.dtd"><svg t="1751005367181" class="icon" viewBox="0 0 1024 1024" version="1.1" xmlns="http://www.w3.org/2000/svg" p-id="6388" xmlns:xlink="http://www.w3.org/1999/xlink" width="128" height="128"><path d="M874.666667 362.666667v469.333333a85.333333 85.333333 0 0 1-85.333334 85.333333H234.666667a85.333333 85.333333 0 0 1-85.333334-85.333333V362.666667h64v469.333333a21.333333 21.333333 0 0 0 18.837334 21.184L234.666667 853.333333h554.666666a21.333333 21.333333 0 0 0 21.333334-21.333333V362.666667h64z" fill="#323847" p-id="6389"></path><path d="M494.272 112.106667a32 32 0 0 1 35.669333 0l426.56 286.442666a32 32 0 1 1-35.669333 53.12L512.085333 177.194667 103.168 451.690667a32 32 0 0 1-42.56-6.272l-1.834667-2.474667a32 32 0 0 1 8.725334-44.394667L494.272 112.106667zM512 533.333333c80.853333 0 146.709333 62.933333 149.248 141.546667l0.085333 4.736V917.333333H362.666667V679.616C362.666667 598.826667 429.525333 533.333333 512 533.333333z m0 64c-47.424 0-85.333333 37.12-85.333333 82.282667V853.333333h170.666666v-172.672l-0.042666-3.690666C595.861333 632.96 558.4 597.333333 512 597.333333z" fill="#323847" p-id="6390"></path></svg>