<?xml version="1.0" standalone="no"?><!DOCTYPE svg PUBLIC "-//W3C//DTD SVG 1.1//EN" "http://www.w3.org/Graphics/SVG/1.1/DTD/svg11.dtd"><svg t="1751005527338" class="icon" viewBox="0 0 1024 1024" version="1.1" xmlns="http://www.w3.org/2000/svg" p-id="9479" xmlns:xlink="http://www.w3.org/1999/xlink" width="128" height="128"><path d="M443.38176 52.64384a32.95744 32.95744 0 0 1 32.98304 33.00864 32.95744 32.95744 0 0 1-32.98304 33.00352H218.17344c-55.6544 0-101.00736 45.38368-101.00736 101.08416v585.96352c0 55.70048 45.34784 101.08416 101.00736 101.08416h585.53856c55.65952 0 101.01248-45.38368 101.01248-101.08416v-214.64064a32.95744 32.95744 0 0 1 32.97792-33.00864 32.95744 32.95744 0 0 1 32.98304 33.00864v214.64064c0 92.1088-74.9312 167.09632-166.97344 167.09632H218.17344C126.1312 972.8 51.2 897.81248 51.2 805.70368V219.74016c0-92.1088 74.9312-167.09632 166.97344-167.09632h225.20832z m386.4064-1.44384c27.3152 0 52.98176 10.624 72.15104 29.91104l41.02144 41.05216c39.7824 39.81312 39.7824 104.48384 0 144.30208l-400.22016 400.30208a32.512 32.512 0 0 1-23.296 9.69728 33.00352 33.00352 0 0 1-12.6464-2.5088l-158.34624 42.42432a34.816 34.816 0 0 1-8.5504 1.13664 32.83968 32.83968 0 0 1-23.296-9.69728 33.15712 33.15712 0 0 1-8.5504-31.872l42.41408-158.5152a33.08544 33.08544 0 0 1 7.15776-36.01408l347.63264-347.80672a33.4336 33.4336 0 0 1 4.20864-4.20352l48.27648-48.29696C766.70976 72.1408 791.7568 51.2 829.78816 51.2zM403.58912 574.13632l-17.1008 63.75424 63.74912-17.07008-46.64832-46.68416z m326.79424-372.38784L430.2336 502.1952l91.83744 91.904 299.38176-299.60192-91.06944-92.7488z m99.4048-84.5312c-13.80864 0-22.98368 8.0384-25.45664 10.51648l-27.25888 27.27936 91.07456 92.75904 28.12416-28.1344a35.99872 35.99872 0 0 0 0-50.85184l-41.02144-41.05216-0.1024-0.1024a35.51232 35.51232 0 0 0-25.35936-10.4192z" p-id="9480" fill="#000000"></path></svg>