<?xml version="1.0" standalone="no"?><!DOCTYPE svg PUBLIC "-//W3C//DTD SVG 1.1//EN" "http://www.w3.org/Graphics/SVG/1.1/DTD/svg11.dtd"><svg t="1751006126374" class="icon" viewBox="0 0 1126 1024" version="1.1" xmlns="http://www.w3.org/2000/svg" p-id="6734" xmlns:xlink="http://www.w3.org/1999/xlink" width="140.75" height="128"><path d="M140.800512 341.3504h168.96c14.9504 0 29.2864 5.9904 39.8336 16.64 10.5472 10.7008 16.4864 25.1392 16.4864 40.2432v426.6496c0 31.4368-25.1904 56.8832-56.32 56.8832h-168.96c-31.1296 0-56.32-25.4464-56.32-56.832V398.1824c0-15.104 5.9392-29.5936 16.4864-40.2432 10.5472-10.6496 24.8832-16.64 39.8336-16.64z m337.92-142.2336h169.0112c31.0784 0 56.2688 25.4464 56.32 56.832v568.9344c0 31.3856-25.2416 56.832-56.32 56.8832H478.720512c-31.1296 0-56.32-25.4464-56.32-56.832V255.8976c0-31.3856 25.1904-56.832 56.32-56.832zM816.640512 0h168.96c31.0784 0 56.32 25.4464 56.32 56.8832v768c0 15.104-5.9392 29.5424-16.4864 40.2432a56.0128 56.0128 0 0 1-39.8336 16.64h-168.96c-14.9504 0-29.2864-5.9904-39.8336-16.64a57.1904 57.1904 0 0 1-16.4864-40.2432v-768c0-15.104 5.9392-29.5424 16.4864-40.2432 10.5472-10.6496 24.8832-16.64 39.8336-16.64zM42.240512 938.6496h1041.92a42.496 42.496 0 0 1 42.24 42.7008 42.496 42.496 0 0 1-42.24 42.6496H42.240512A42.496 42.496 0 0 1 0.000512 981.3504c0-23.552 18.944-42.7008 42.24-42.7008z" p-id="6735" fill="#000000"></path></svg>