<?xml version="1.0" standalone="no"?><!DOCTYPE svg PUBLIC "-//W3C//DTD SVG 1.1//EN" "http://www.w3.org/Graphics/SVG/1.1/DTD/svg11.dtd"><svg t="1751006223506" class="icon" viewBox="0 0 1097 1024" version="1.1" xmlns="http://www.w3.org/2000/svg" p-id="11189" xmlns:xlink="http://www.w3.org/1999/xlink" width="137.125" height="128"><path d="M709.412571 291.584a149.906286 149.906286 0 0 0-149.577142-150.198857 149.942857 149.942857 0 0 0-149.650286 150.198857 149.942857 149.942857 0 0 0 149.613714 150.198857 148.918857 148.918857 0 0 0 111.689143-50.249143 149.833143 149.833143 0 0 0 37.924571-99.949714z m52.662858 0a202.496 202.496 0 0 1-51.236572 134.948571 201.581714 201.581714 0 0 1-151.04 67.913143c-111.725714 0-202.276571-90.843429-202.276571-202.861714 0-112.018286 90.550857-202.861714 202.276571-202.861714 111.762286 0 202.276571 90.843429 202.276572 202.861714zM832.512 870.692571c40.630857 0 73.618286-33.060571 73.618286-73.874285 0-123.318857-95.049143-195.181714-242.395429-195.181715h-207.872c-147.346286 0-242.358857 71.862857-242.358857 195.145143 0 40.850286 32.914286 73.910857 73.581714 73.910857h545.426286z m0 52.662858H287.085714a126.390857 126.390857 0 0 1-126.244571-126.537143c0-156.16 121.307429-247.844571 295.021714-247.844572h207.872c173.714286 0 295.058286 91.721143 295.058286 247.808a126.427429 126.427429 0 0 1-126.281143 126.573715z" fill="#000000" p-id="11190"></path></svg>